# xmcd
#
# Track frame offsets: 
#        150
#        21904
#        39151
#        57234
#        72497
#        91119
#        111400
#        131103
#        151960
#        173987
#
# Disc length: 2571 seconds
#
# Revision: 0
# Processed by: cddbd v1.5.2PL0 Copyright (c) Steve Scherf et al.
# Submitted via: ExactAudioCopyFreeDBPlugin 1.0
#
DISCID=840a090a
DTITLE=Manfred Hirschbach - Tell me where the music is
DYEAR=1900
DGENRE=Blues
TTITLE0=Tell me where the music is
TTITLE1=Rock'n roll clown
TTITLE2=Given
TTITLE3=Don't look back
TTITLE4=Nightlife
TTITLE5=Good to be true
TTITLE6=Brother
TTITLE7=Can't stand it
TTITLE8=Stop
TTITLE9=Down with the blues
EXTD=
EXTT0=
EXTT1=
EXTT2=
EXTT3=
EXTT4=
EXTT5=
EXTT6=
EXTT7=
EXTT8=
EXTT9=
PLAYORDER=
